<svg width="429" height="50" viewBox="0 0 320 99.23664322197266" class="css-1j8o68f">
                        <defs id="SvgjsDefs2060"></defs>
                        <g id="SvgjsG2061" featurekey="4K7G0D-0" transform="matrix(1.272264532248264,0,0,1.272264532248264,-14.249362518515355,-13.994909854730903)" fill="#ff325d">
                            <path xmlns="http://www.w3.org/2000/svg" d="M29.5,25.5c2.5,0,4.6-2.1,4.6-4.6s-2.1-4.6-4.6-4.6c-2.5,0-4.6,2.1-4.6,4.6S27,25.5,29.5,25.5z M27,58  c0,0.7,0.6,1.3,1.3,1.3c0.7,0,1.3-0.6,1.3-1.3s-0.6-1.3-1.3-1.3C27.6,56.7,27,57.3,27,58z M36.2,31.3c1.1,0,1.9-0.9,1.9-1.9  c0-1.1-0.9-1.9-1.9-1.9c-1.1,0-1.9,0.9-1.9,1.9C34.3,30.4,35.1,31.3,36.2,31.3z M21.1,48.6c2.5,0,4.6-2.1,4.6-4.6  c0-2.5-2.1-4.6-4.6-4.6s-4.6,2.1-4.6,4.6C16.6,46.5,18.6,48.6,21.1,48.6z M14.5,37.8c1.1,0,1.9-0.9,1.9-1.9c0-1.1-0.9-1.9-1.9-1.9  c-1.1,0-1.9,0.9-1.9,1.9C12.6,37,13.4,37.8,14.5,37.8z M13.8,42c0-0.7-0.6-1.3-1.3-1.3c-0.7,0-1.3,0.6-1.3,1.3s0.6,1.3,1.3,1.3  C13.2,43.3,13.8,42.7,13.8,42z M19.9,31.2c1.8,0,3.2-1.4,3.2-3.2s-1.4-3.2-3.2-3.2c-1.8,0-3.2,1.4-3.2,3.2S18.1,31.2,19.9,31.2z   M58.8,13.6c0.7,0,1.3-0.6,1.3-1.3c0-0.7-0.6-1.3-1.3-1.3c-0.7,0-1.3,0.6-1.3,1.3C57.5,13,58.1,13.6,58.8,13.6z M23.8,57.5  c0-3.1-2.5-5.6-5.6-5.6c-3.1,0-5.6,2.5-5.6,5.6s2.5,5.6,5.6,5.6C21.3,63.1,23.8,60.6,23.8,57.5z M79.9,33.9c2.5,0,4.6-2.1,4.6-4.6  s-2.1-4.6-4.6-4.6s-4.6,2.1-4.6,4.6S77.3,33.9,79.9,33.9z M69.6,65.5c0,1.8,1.4,3.2,3.2,3.2c1.8,0,3.2-1.4,3.2-3.2s-1.4-3.2-3.2-3.2  C71,62.3,69.6,63.7,69.6,65.5z M72.8,22.9c1.8,0,3.2-1.4,3.2-3.2c0-1.8-1.4-3.2-3.2-3.2c-1.8,0-3.2,1.4-3.2,3.2  C69.6,21.5,71,22.9,72.8,22.9z M65.7,31.2c1.8,0,3.2-1.4,3.2-3.2s-1.4-3.2-3.2-3.2c-1.8,0-3.2,1.4-3.2,3.2S63.9,31.2,65.7,31.2z   M77.2,42.5c0,3.1,2.5,5.6,5.6,5.6c3.1,0,5.6-2.5,5.6-5.6s-2.5-5.6-5.6-5.6C79.7,36.9,77.2,39.4,77.2,42.5z M74,42  c0-0.7-0.6-1.3-1.3-1.3c-0.7,0-1.3,0.6-1.3,1.3s0.6,1.3,1.3,1.3C73.4,43.3,74,42.7,74,42z M64.8,16.1c1.1,0,1.9-0.9,1.9-1.9  s-0.9-1.9-1.9-1.9c-1.1,0-1.9,0.9-1.9,1.9S63.8,16.1,64.8,16.1z M70.8,37.8c1.1,0,1.9-0.9,1.9-1.9c0-1.1-0.9-1.9-1.9-1.9  s-1.9,0.9-1.9,1.9C68.9,37,69.8,37.8,70.8,37.8z M31.4,34.5c0-1.8-1.4-3.2-3.2-3.2c-1.8,0-3.2,1.4-3.2,3.2s1.4,3.2,3.2,3.2  C30,37.7,31.4,36.3,31.4,34.5z M64.8,68.7c-1.1,0-1.9,0.9-1.9,1.9c0,1.1,0.9,1.9,1.9,1.9c1.1,0,1.9-0.9,1.9-1.9  C66.7,69.6,65.9,68.7,64.8,68.7z M58.3,76.4c-3.1,0-5.6,2.5-5.6,5.6s2.5,5.6,5.6,5.6c3.1,0,5.6-2.5,5.6-5.6S61.4,76.4,58.3,76.4z   M71.5,74.5c-2.5,0-4.6,2.1-4.6,4.6s2.1,4.6,4.6,4.6c2.5,0,4.6-2.1,4.6-4.6S74,74.5,71.5,74.5z M57.5,72.5c0,0.7,0.6,1.3,1.3,1.3  c0.7,0,1.3-0.6,1.3-1.3c0-0.7-0.6-1.3-1.3-1.3C58.1,71.3,57.5,71.8,57.5,72.5z M88.5,56.7c-0.7,0-1.3,0.6-1.3,1.3s0.6,1.3,1.3,1.3  c0.7,0,1.3-0.6,1.3-1.3S89.1,56.7,88.5,56.7z M86.5,62.2c-1.1,0-1.9,0.9-1.9,1.9c0,1.1,0.9,1.9,1.9,1.9c1.1,0,1.9-0.9,1.9-1.9  C88.4,63,87.6,62.2,86.5,62.2z M56.2,25.5c2.5,0,4.6-2.1,4.6-4.6s-2.1-4.6-4.6-4.6s-4.6,2.1-4.6,4.6S53.7,25.5,56.2,25.5z   M79.9,51.4c-2.5,0-4.6,2.1-4.6,4.6c0,2.5,2.1,4.6,4.6,4.6s4.6-2.1,4.6-4.6C84.4,53.5,82.4,51.4,79.9,51.4z M21.1,66.1  c-2.5,0-4.6,2.1-4.6,4.6s2.1,4.6,4.6,4.6s4.6-2.1,4.6-4.6S23.7,66.1,21.1,66.1z M81.1,68.8c-1.8,0-3.2,1.4-3.2,3.2s1.4,3.2,3.2,3.2  c1.8,0,3.2-1.4,3.2-3.2S82.9,68.8,81.1,68.8z M30.2,62.2c-1.1,0-1.9,0.9-1.9,1.9c0,1.1,0.9,1.9,1.9,1.9s1.9-0.9,1.9-1.9  C32.1,63,31.2,62.2,30.2,62.2z M35.3,68.8c-1.8,0-3.2,1.4-3.2,3.2s1.4,3.2,3.2,3.2c1.8,0,3.2-1.4,3.2-3.2S37.1,68.8,35.3,68.8z   M36.2,83.9c-1.1,0-1.9,0.9-1.9,1.9s0.9,1.9,1.9,1.9c1.1,0,1.9-0.9,1.9-1.9S37.2,83.9,36.2,83.9z M28.2,77.1c-1.8,0-3.2,1.4-3.2,3.2  c0,1.8,1.4,3.2,3.2,3.2c1.8,0,3.2-1.4,3.2-3.2C31.4,78.5,30,77.1,28.2,77.1z M41,27.5c0,0.7,0.6,1.3,1.3,1.3c0.7,0,1.3-0.6,1.3-1.3  c0-0.7-0.6-1.3-1.3-1.3C41.5,26.2,41,26.8,41,27.5z M48.3,17.9c0-3.1-2.5-5.6-5.6-5.6c-3.1,0-5.6,2.5-5.6,5.6s2.5,5.6,5.6,5.6  C45.8,23.6,48.3,21.1,48.3,17.9z M42.2,86.4c-0.7,0-1.3,0.6-1.3,1.3c0,0.7,0.6,1.3,1.3,1.3c0.7,0,1.3-0.6,1.3-1.3  C43.5,87,42.9,86.4,42.2,86.4z M44.8,74.5c-2.5,0-4.6,2.1-4.6,4.6s2.1,4.6,4.6,4.6s4.6-2.1,4.6-4.6S47.3,74.5,44.8,74.5z">
                            </path>
                        </g>
                        <g id="SvgjsG2062" featurekey="wPuqcM-0" transform="matrix(4.40528619555213,0,0,4.40528619555213,118.23788720226247,-16.550660774444015)" fill="#ff325d">
                            <path d="M12.38 20 l-1.06 -2.5 l-6.76 0 l-1.06 2.5 l-3.1 0 l6.22 -14 l2.64 0 l6.24 14 l-3.12 0 z M5.58 15.120000000000001 l4.72 0 l-2.36 -5.54 z M26.259999999999998 6 l2.92 0 l0 14 l-2.22 0 l-6.94 -8.68 l0 8.68 l-2.92 0 l0 -14 l2.26 0 l6.9 8.7 l0 -8.7 z M38.540000000000006 5.800000000000001 c3.9 0 7.26 2.94 7.26 7.2 s-3.36 7.2 -7.26 7.2 s-7.26 -2.94 -7.26 -7.2 s3.36 -7.2 7.26 -7.2 z M38.540000000000006 17.46 c2.36 0 4.22 -1.86 4.22 -4.46 s-1.86 -4.46 -4.22 -4.46 s-4.22 1.86 -4.22 4.46 s1.86 4.46 4.22 4.46 z">
                            </path>
                        </g>
                        <g id="SvgjsG2063" featurekey="Li3fkV-0" transform="matrix(0.5801305550459457,0,0,0.5801305550459457,119.38506164484663,78.8210004543335)" fill="#fcfcfc">
                            <path d="M5.98 5.48 q2.46 0 3.86 1.78 l-1.14 0.82 q-1.04 -1.4 -2.76 -1.4 q-1.4 0 -2.27 0.72 t-0.91 1.96 q0 1.08 0.66 1.75 t2.3 1.13 q2.16 0.64 2.88 1.13 t1.09 1.21 t0.37 1.8 q0 1.72 -1.23 2.83 t-3.17 1.15 q-3.06 0 -4.6 -2.14 l1.26 -0.84 q1.06 1.76 3.24 1.78 q1.42 0 2.3 -0.79 t0.88 -1.99 q0 -0.7 -0.25 -1.15 t-0.76 -0.78 t-1.3 -0.6 t-1.85 -0.63 q-1.6 -0.52 -2.37 -1.46 t-0.77 -2.4 q0 -1.72 1.29 -2.8 t3.25 -1.08 z M28.604 5.84 l0 12.96 l6.6 0 l0 1.2 l-7.92 0 l0 -14.16 l1.32 0 z M51.908 12.92 q0 2.7 1.66 4.45 t4.34 1.79 q2.7 0 4.34 -1.77 t1.66 -4.47 q0 -2.74 -1.64 -4.47 t-4.38 -1.77 q-2.68 0 -4.32 1.76 t-1.66 4.48 z M57.908 5.48 q2.16 0 3.82 0.95 t2.57 2.66 t0.93 3.83 q0 3.26 -2.06 5.33 t-5.26 2.11 q-3.22 0 -5.24 -2.09 t-2.08 -5.35 q0.02 -3.26 2.04 -5.32 t5.28 -2.12 z M88.81200000000001 5.48 q3.2 -0.02 5.1 1.96 l-0.96 1 q-0.6 -0.74 -1.77 -1.25 t-2.37 -0.51 q-2.66 0 -4.32 1.76 t-1.68 4.48 q0 2.7 1.64 4.44 t4.38 1.8 q2.6 0 3.94 -0.84 l0 -4.76 l-3.4 0 l0 -1.2 l4.72 0 l0 6.72 q-2.3 1.28 -5.28 1.28 q-3.2 0 -5.23 -2.09 t-2.09 -5.35 q0.02 -3.28 2.06 -5.34 t5.26 -2.1 z M113.85600000000001 15.04 l6.5 0 l-3.2 -7.76 z M117.89600000000002 5.84 l5.96 14.16 l-1.48 0 l-1.54 -3.76 l-7.5 0 l-1.6 3.76 l-1.38 0 l6.18 -14.16 l1.36 0 z M141.82 5.84 l8.62 12.4 l0.04 0 l0 -12.4 l1.32 0 l0 14.16 l-1.7 0 l-8.62 -12.4 l-0.04 0 l0 12.4 l-1.32 0 l0 -14.16 l1.7 0 z M198.62800000000001 5.84 l0 1.2 l-4.84 0 l0 12.96 l-1.32 0 l0 -12.96 l-4.84 0 l0 -1.2 l11 0 z M223.692 5.84 l0 1.2 l-7.34 0 l0 5.04 l6.88 0 l0 1.2 l-6.88 0 l0 5.52 l7.66 0 l0 1.2 l-8.98 0 l0 -14.16 l8.66 0 z M241.23600000000002 5.84 l4.08 5.76 l4.02 -5.76 l1.58 0 l-4.8 6.72 l5.26 7.44 l-1.64 0 l-4.48 -6.4 l-4.48 6.4 l-1.58 0 l5.32 -7.44 l-4.84 -6.72 l1.56 0 z M276.86 5.84 l0 1.2 l-4.84 0 l0 12.96 l-1.32 0 l0 -12.96 l-4.84 0 l0 -1.2 l11 0 z">
                            </path>
                        </g>
                    </svg>